<?xml version="1.0" encoding="UTF-8"?>
<svg id="Layer_2" xmlns="http://www.w3.org/2000/svg" version="1.1" viewBox="0 0 300 150">
  <!-- Generator: Adobe Illustrator 30.1.0, SVG Export Plug-In . SVG Version: 2.1.1 Build 136)  -->
  <defs>
    <style>
      .st0 {
        fill: #1515c8;
      }
    </style>
  </defs>
  <path class="st0" d="M189.96,78.99h5.92l-2.93-6.12s-2.98,6.13-2.98,6.12h0Z"/>
  <path class="st0" d="M150,0C108.58,0,75,33.58,75,75s33.58,75,75,75,75-33.58,75-75S191.42,0,150,0ZM116.66,87.3h0l-12.66-11.01v9.25h-7.81v-25.67l12.68,11.03v-9.25h7.8v25.64h-.01ZM131.5,85.52h-7.81v-23.86s7.81.03,7.81,0v23.86ZM146.43,87.3l-13.65-25.64h8.32s4.87,9.91,5.32,10.69l5.35-10.69h8.32l-13.67,25.64h.01ZM176.65,67.72h-7.5v3.35h7.5v4.51h-7.5v3.71h7.5v6.23h-15.28v-23.86h15.28v6.05h0ZM199.1,85.52h0l-1.28-2.6h-9.74l-1.32,2.6h-8.16s9.51-17.28,14.35-25.82l14.36,25.82h-8.21Z"/>
</svg>