<?xml version="1.0" encoding="UTF-8"?>
<svg id="Layer_1" xmlns="http://www.w3.org/2000/svg" version="1.1" viewBox="0 0 300 150">
  <!-- Generator: Adobe Illustrator 30.1.0, SVG Export Plug-In . SVG Version: 2.1.1 Build 136)  -->
  <defs>
    <style>
      .st0 {
        fill: #0f0e9a;
      }
    </style>
  </defs>
  <path class="st0" d="M138.53,136.22c1.01,0,2.72-.33,4.08-2.49-.77-1.72-1.32-5.2-1.41-6.46-.4-6.48,2.1-12.57,4.83-12.75,2-.12,3.6,1.77,3.79,4.85.49,8.07-2.2,11.45-3.54,14.35.22,1.13,2.14,3.04,3.94,3.04.67,0,1.47-.34,1.68-.6-.14-.46-.27-1.07-.27-1.94,0-4.68,3.01-8.62,5.61-8.62,2.07,0,3.27,2.74,3.27,4.55,0,2.13-1.8,3.88-4.48,5.55.47.46,1.33.8,2.07.8,3.82,0,5.81-4.62,7.29-8.83.27-.81.74-1.94,1.67-1.94,1.61,0,2.28,10.56,4.94,10.56,1.13,0,2.07-2.34,2.07-4.14,0-1.34-.46-1.47-.46-3.41,0-2.14,1.13-3.94,2.67-3.94.94,0,1.27.93,1.27,2.06,0,4.28-3.08,12.23-7.61,12.23-3.41,0-3.15-5.88-4.35-5.88-1.34,0-3.21,5.95-9.82,5.95-1.07,0-2.21-.53-3.14-1.61-1.61,1.07-2.95,1.54-4.48,1.54-2.47,0-3.54-2.54-4.54-2.54-1.2,0-2.54,2.6-6.55,2.6-3.21,0-3.75-4.27-4.87-4.27-1.01,0-2.54,4.27-4.21,4.27-2.81,0-3.4-7.42-5.89-7.42-1.94,0-8.06,7.54-9.72,7.37-.67-.07-.95-.57-.88-1.24.09-.93.89-3.39,1.21-4.57.54-2.03,1.04-4.26,1.31-4.97.28-.71,1.01-1.23,1.62-1.17.3.03.4.58.48,1.05.34,1.65.81,3.33,1.34,3.33.94,0,4.04-5.95,5.84-5.95,2.21,0,2.48,9.36,5.47,9.36,1.01,0,1.74-1.2,2.41-2.67.07-2.48.74-6.01,2.74-6.01,1.41,0,2.07,3.14,1.07,5.88,0,3.27,2.14,4.07,3.54,4.07M191.99,128.2c-.83,3.44-3.34,8.49-7.08,8.49-.87,0-2.41-.34-2.41-1.2,0-.94,5.89-1.07,5.89-5.54,0-1.67-1.54-4.01-3.81-4.01-3.01,0-5.94,3.27-5.94,7.82,0,4.07,2.54,5.41,5.07,5.41,4.42,0,7.08-3.61,8.49-6.62.67,2,1.07,6.62,2.74,6.62.67,0,1.13-.34,1.94-2.14,1.99-4.48,3.94-9.63,6.62-9.63,1,0,.4,1.8,2.81,1.8,1.13,0,1.93-.94,1.93-2.01,0-1.54-1.4-2.73-3.54-2.73-6.28,0-7.61,9.42-8.62,9.42-1.68,0-1.13-7.55-2.35-7.55-1.07,0-1.6,1.27-1.74,1.87M147.66,121.16c-.12-1.86-.57-2.71-1.57-2.64-1.33.08-1.95,4.27-1.68,8.67.17,2.87.6,3.32,1,3.28.74-.04,2.5-5.17,2.24-9.32M136.79,117.23c-.09-1.07-.94-1.8-2.07-1.8-1.27,0-2.47,1.33-2.34,3,.08,1.1.73,2.01,2,2.01,1.47,0,2.54-1.67,2.4-3.21M157.58,130.87c0-1.13-.6-2.07-1.33-2.07-.61,0-2,.66-2,2.8,0,1.68.59,2.48.87,2.81,1.93-.6,2.48-2.21,2.48-3.55M183.7,128.6c1.41,0,1.8,1.67,1.48,2.66-.34,1.01-1.54,2.14-3.41,2.48-.4-1.01-.6-5.15,1.93-5.15M106.76,123.86c-.19-.61-.75-1.98-.9-2.98-.34-2.23.83-3.7,1.91-4.04,1.2-.34,1.68.27,2.14,1.68.6,2.14.67,4.94.46,8.96-.27,5.48-3.01,12.1-9.82,11.96-5.89-.13-8.48-3.94-8.76-9.75-.13-2.74.07-5.47,1.2-9.35.6-2.07,1.13-2.81,3.01-3.21,1.47-.27,1.34,1.26,1.01,3.08-.73,4.01-1.07,5.95-.8,10.49.27,4.81,2.48,6.69,4.88,6.69,3.61.07,5.21-2.94,5.88-7.29.53-3.47.13-5.15-.21-6.21M185.58,36.92c.46,3.37,5.57,7.91,6.95,7.8.92-.08,1.28-4.4,1.28-7.8,0-1.95.1-3.47-.92-3.83-1.63,3.3-5.92,3.97-7.31,3.83M185.86,35.42c3.69,0,7.06-2.94,7.06-5.53,0-1.2-.57-2.2-2.02-2.37.25.32.35.57.35,1.13,0,1.95-2.97,4.12-6.21,4.12-1.17,0-1.53.82-1.53,1.24,0,1,.96,1.42,2.34,1.42M185.08,31.42c-.5,0-1.2,0-1.6-.78-.32-.64-.21-1.67-.82-2.13.6.18,1.24.18,1.74.18,1.6,0,3.13-1.1,4.3-1.1.77,0,1.02.5,1.02.99,0,1.56-3.15,2.84-4.64,2.84M105.76,59.22c1.2,0,.95-7.37,2.9-7.37.46,0,.6.46.6,1.03,0,1.67-.82,4.12-.82,5.46,0,.68.18.89.5.89.85,0,2.34-8.12,3.8-8.12.46,0,.67.46.67.92,0,1.7-2.17,6.59-2.17,7.98,0,.21.07.39.25.39.89,0,2.66-3.82,3.22-5.74.32-1,.75-1.53,1.13-1.53.35,0,.67.4.67,1.2,0,1.92-1.77,6.42-3.33,9.44-1.2,2.34-3.09,5.71-3.09,7.59,0,.95.17,1.95,1.56,3.15-2.27-.14-3.2-.35-4.04-2.13-3.79,7.55,6.99,6.81,3.3,13.51-.67-1.2-5.99-2.45-5.99-9.47,0-6.07,5.32-9.61,5.32-12.13,0-.49-.17-.92-.64-1.31-1.17-1-1.2-1.8-2.12-1.8-.68,0-1.5,1.56-.64,2.94.28.46.53.75.53,1.17,0,.99-1.56,3.65-2.66,3.65s-1.95-2.72-1.95-7.12c0-3.9.89-7.84,1.99-7.84.32,0,.43.21.43.5,0,.46-.14,1.38-.14,2.94,0,1.67.39,1.81.7,1.81"/>
  <path class="st0" d="M114.79,69.61c1.5,0,2.73-1.1,2.73-3.54v-3.62c0-1.38.1-2.94,1.03-4.04-.1.46-.1.96-.1,1.42,0,3.05,1.7,5.14,1.7,8.09,0,1.1-.32,1.7-1.17,1.7s-.75-.75-.93-.75c-.14,0-.35.46-.35.96,0,.75.53,1.92,2.02,1.92,1.28,0,2.3-1.17,2.3-2.48,0-3.19-2.48-6.74-2.48-10.14,0-1.5.39-2.48.7-3.27,0,7.06,5.99,12.2,5.99,15.14,0,.68-.5,1.2-1.24,1.2-.82,0-1.2-.64-1.2-1.13,0-.25-.03-.32-.14-.32-.21,0-.85.7-.85,1.63,0,1.17.95,2.59,2.73,2.59,2.02,0,3.12-1.7,3.12-3.23,0-3.72-7.27-9.36-7.27-15.39,0-1.03.18-2.7.92-3.97-4.68,3.02-6.14,7.02-6.14,10.54,0,3.05-.1,4.57-1.67,4.57-.82,0-1.03-.74-1.31-.74-.21,0-.32.64-.32.82,0,1.31.96,2.05,1.92,2.05M176.25,34.18c1.56,0,2.73-.7,2.73-1.13,0-.14-.21-.25-.68-.25s-1.38-.03-3.12-.32c-1.5-.25-2.63-.82-3.05-.82-.14,0-.21.07-.21.18,0,.92,1.7,2.34,4.33,2.34M168.53,29.68c.45-.3,2.45.17,5.04-1.1.28-.16.6-.24.92-.25,1.25,0,.92,1.42,2.06,1.42.89,0,2.02-.75,2.7-.75,1.06,0,2.59,3.33,2.59,4.89,0,1.81-2.72,2.9-5.96,2.9-4.71,0-7.55-4.11-7.55-6.77,0-.21.11-.28.21-.35M115.54,82.97c-1.17.28-3.05,2.12-3.05,5.04,0,3.47,3.72,8.83,9.86,8.83,5.17,0,6.45-3.58,6.45-6,0-5.35-3.3-9.12-7.59-9.12-2.34,0-4.43,1.7-4.43,4.22,0,2.35,1.77,5.85,5.99,5.85,1.99,0,3.15-1.42,3.15-3.05s-1.45-3.79-3.58-3.79c-.64,0-1.1.42-1.1,1.1,0,.85,1.17,1.7,2.62,1.7.35,0,.64-.07.78-.14.07.1.1.28.1.43,0,.82-.78,1.31-1.99,1.31-1.8,0-3.55-1.35-3.55-3.48,0-1.27,1.1-2.2,2.7-2.2,3.15,0,5.04,2.8,5.04,5.6,0,2.52-1.38,3.97-4.22,3.97-5.67,0-8.44-5.11-7.2-10.29M153.27,96.67c0,.78.64,1.42,1.42,1.42s1.42-.64,1.42-1.42-.64-1.42-1.42-1.42-1.42.64-1.42,1.42M156.02,103.76c1.7,0,1.62-.14,2.15-.14s.57.32.57.53c0,.78-1.74,1.74-4.82,1.74-1.81,0-2.9-.96-3.23-2.02-1.77,1.13-4.47,2.17-7.12,2.17-7.27,0-9.11-3.15-11.38-4.19-1.74-.78-4.4.75-8.12-3.4.5.1,1.17.15,1.7.15,3.26,0,4.99-1.6,4.99-4.15,0-.32-.03-.67-.07-.99,1,.39,3.27,2.09,3.8,5.11.07.35,1.52.67,2.45.67,1.28,0,2.91-.53,3.15-2.62,4.25-.35,7.13-2.87,7.73-6.07,1.52.5,3.26,1.88,3.69,2.6.6-.21,1.31-.32,2.13-.32,1.13,0,2.42.21,3.94.68.07-.46.15-1.03.85-1.03,1.07,0,.78,1.17,1.13,1.84.18.35,1.07.57,1.07,1.28s-.57.92-.92.92c-.15,0-.32-.03-.43-.07-.7.25-.74,5.35-3.72,5.35-2.2,0-4.22-1.8-5.11-4.07-.25-.67-.78-1.1-1.28-1.1-.57,0-.89.1-1.56.85-1.92,2.09-5.11,3.9-9.04,3.9-1.21,0-2.17-.1-2.42-.1-.14,0-.14.03-.14.07,0,.25,1.2,1.21,3.83,1.21,6.24,0,7.77-3.52,8.76-3.52.14,0,.57,0,.82.57,1.45,3.4,4.63,4.19,6.62,4.19M177.53,81.17c-.75,0-4.86,5.5-7.52,5.5-.64,0-1.17-1.2-1.17-2.12,0-.5.32-.85,1.45-1.1,6.09-1.38,4.74-5.96,9.96-5.96,2.87,0,6.07,1.95,6.07,6.35,0,4.68-6.66,10.49-7.66,10.49-.82,0-1.7-1.17-1.7-1.95,0-.25.1-.57.82-.85,3.4-1.35,5.35-4.47,5.35-6.07,0-.35-.18-.7-.64-.7-.6,0-3.18,5.89-6.06,5.89-1.99,0-4.01-1.8-4.01-2.66,0-1.42,5.75-4.04,5.75-6.03,0-.75-.35-.78-.64-.78M181.36,78.97c-.5,0-1.03.4-1.03,1.35,0,1.06.82,1.74,1.28,1.95.25.14.64.28,1.02.28,1.03,0,1.85-.28,1.85-1.13,0-1.1-1.6-2.45-3.12-2.45M115.12,37.91c0,.78.64,1.42,1.42,1.42s1.42-.64,1.42-1.42-.64-1.42-1.42-1.42-1.42.64-1.42,1.42M113.27,34.72c0,.78.64,1.42,1.42,1.42s1.42-.64,1.42-1.42-.64-1.42-1.42-1.42-1.42.64-1.42,1.42M112,44.43c-.82.21-2.52,1.2-2.52,2.98,0,1.28.99,2.09,2.23,2.09.64,0,1.1-.14,1.38-.35-.99-.95-1.35-2.02-1.35-3.09,0-.75.1-1.2.25-1.63M103.31,44.93c-.03.18-.03.35-.03.53,0,1.67.89,2.59,2.05,2.59.89,0,1.92-.53,2.84-1.7-.42.07-.85.1-1.28.1-1.31,0-2.72-.35-3.58-1.52M102.06,48.08c0,2.7.82,3.97,2.27,3.97,1.13,0,2.66-.82,4.47-2.37-1.38.32-2.45.53-3.4.53-1.28,0-2.27-.5-3.33-2.12M111.25,33.9c.18-.57.32-1.27.32-2.05,0-1.7-.78-4.29-3.19-4.29-1.38,0-2.38,1.1-2.38,2.42,0,2.8,2.8,3.94,5.25,3.94M108.24,42.83c-1.17,0-2.45-1.45-2.45-2.77,0-.7.53-1.6.92-1.6.14,0,.21.1.25.35.21,1.74,1.35,2.73,2.42,3.22.1.07.17.1.17.18,0,.25-.67.6-1.31.6M111.5,38.51c.24.34.92.75.92,1,0,.5-.28,1.13-.85,1.13-1.24,0-2.23-1.88-2.23-2.95,0-.67.4-.74.92-.74.25,0,.35.03.53.14.32.17.32.89.71,1.42M103.16,42.91c-.07.11-.1.25-.1.4,0,.32.35.67.67.67.28,0,.46-.07.6-.07.85,0,1.8.6,3.19.6.82,0,1.77-.25,2.98-.85,2.55-1.28,3.55-4.43,3.55-4.97,0-.67-.54-.58-1-1.2-.46-.62-.28-1.17-.57-1.45-.16-.16-.67-.18-1.31-.25-.26-.03-.52-.03-.78-.03-1.17,0-2.56.15-4.12,1.13-3.08,1.96-2.62,5.21-3.12,6.02M114.94,41.49c-.78.92-1.6,2.48-1.6,4.07,0,1.92,1.17,3.51,2.98,3.51s2.55-1.49,2.55-3.01c0-2.37-2.17-4.04-3.94-4.57M107.35,34.68s-1.03.78-2.3.78c-1.52,0-2.73-1.13-2.73-2.72,0-1.1.57-2.23,1.88-2.8-.03.21-.03.39-.03.6,0,2.02,1.13,3.55,3.19,4.15M169.87,46.45c0,.82.68,1.5,1.48,1.5s1.49-.67,1.5-1.5c0-.82-.67-1.49-1.5-1.49s-1.48.67-1.48,1.49M169.98,50.92c0,.92.75,1.67,1.67,1.67s1.67-.75,1.67-1.67c-.02-.92-.77-1.65-1.69-1.63-.89.02-1.62.74-1.63,1.63M164.86,53.93c0,1.35,1.1,2.45,2.45,2.45s2.45-1.1,2.45-2.45-1.1-2.45-2.45-2.45-2.45,1.1-2.45,2.45M166.18,48.93c0,.78.64,1.42,1.42,1.42s1.42-.64,1.42-1.42-.64-1.42-1.42-1.42-1.42.64-1.42,1.42M161.54,51.77c0,.78.64,1.41,1.41,1.42.78,0,1.42-.64,1.42-1.42s-.64-1.42-1.42-1.42-1.41.64-1.41,1.42M165.18,43.47c0,1.24,1.03,2.27,2.27,2.27s2.27-1.03,2.27-2.27-1.03-2.27-2.27-2.27-2.27,1.02-2.27,2.27M167.85,39.11c0,.75.6,1.35,1.35,1.35h0c.75.03,1.37-.57,1.38-1.31.03-.75-.57-1.37-1.31-1.38h-.08c-.75,0-1.35.6-1.35,1.35h0M161.43,42.51c0,.74.6,1.35,1.34,1.35s1.35-.6,1.35-1.35-.6-1.35-1.35-1.35-1.34.6-1.34,1.35M161.25,47.13c0,1.19.95,2.16,2.13,2.17h.03c1.19,0,2.16-.95,2.17-2.14v-.03c0-1.2-.96-2.16-2.17-2.16s-2.15.95-2.16,2.14v.02M156.79,49.4c0,1.1.92,2.02,2.02,2.02s2.02-.92,2.02-2.02-.93-2.02-2.02-2.02-2.02.92-2.02,2.02M157.99,44.39c0,.78.64,1.42,1.42,1.42s1.42-.64,1.42-1.42-.64-1.42-1.42-1.42-1.42.64-1.42,1.42M170.44,55.32c0-.7.64-1.31,1.34-1.31.78,0,1.38.6,1.38,1.31,0,.82-.6,1.38-1.38,1.38-.7,0-1.34-.57-1.34-1.38M171.35,96.1c.18,0,.4.1.4.75,0,.78-.35,1.8-1.62,2.62-.89.6-2.1,1.1-3.87,1.13.28-.85.5-1.74.5-2.59,0-.28-.03-.5-.07-.82h.46c2.8,0,4.01-1.1,4.21-1.1M171.64,92.58c.29-.24.35-.64.35-1.03v-.82c0-1.03-1.56-1.63-3.69-1.63-2.59,0-3.97,1.17-3.97,1.67v1.63c0,.67,1.56,1.35,3.48,1.35,1.53,0,2.91-.39,3.82-1.17M173.48,92.98c-.92.71-3.08,2.3-6.66,2.3-1.92,0-2.77-.6-3.05-.6-.35,0-.75.35-1.13.82-.84,1-1.94,2.84-1.94,4.86,0,1.42,1.1,2.84,3.15,2.84,6.63,0,11.6-4.15,11.6-7.51,0-1.92-1.13-2.69-1.95-2.69M174.72,63.16c0,.89.28,1.92,1.17,1.92.75,0,1.38-1.13,1.38-2.37,0-1.42-.25-2.52-.25-3.09,0-.25.1-.35.25-.35.53.03,1.03,1.49,1.6,1.49.64,0,1.59-1.17,1.98-1.17.1,0,.14.14.14.18,0,.53-.82,1.7-.82,2.17,0,.39,2.05.46,2.05.82,0,.53-2.16.53-3.19,1-1,.42-1.6.95-1.6,1.67s.7.85,1.7.85c2.37,0,4.04-1.27,4.56-1.27.1,0,.18.07.18.18,0,.35-1.2,1.52-1.2,2.05,0,.6,2.2,1.31,2.17,1.67-.03.1-.18.14-.43.14-.4,0-1-.1-1.46-.1-.28,0-.53.03-.64.18-.24.28.07,2.17-.42,2.17-.46,0-1.67-4.19-4.39-4.19-.4,0-.67.32-.67.85,0,1.42,1.38,3.05,2.7,3.83.59.39,1.59.78,1.59,1,0,.42-2.26.03-2.26.74,0,.64.28,1.6.28,2.17,0,.18-.03.39-.25.39-.42,0-1.45-1.95-1.95-1.95-.42,0-1.35,1.17-1.74,1.17-.1,0-.17-.1-.17-.21,0-.82,1.31-2.66,1.31-4.47,0-.85-.1-2.7-1.13-2.7-.85,0-1.81,1.35-2.23,2.7-.25.78-.07,3.79-.64,3.79-.53,0-.4-2.02-1.1-2.02-.52,0-1.66.95-2.05.95-.07,0-.14-.03-.14-.1,0-.42,1.03-1.8,1.03-2.09,0-.53-2.34-.6-2.34-1.03,0-.25.92-.43,1.77-.57,1.8-.32,4.47-1.63,4.47-3.47,0-2.05-1.99-2.95-3.29-3.8-.68-.42-1.42-.77-1.42-1.07s.85-.28,1.2-.28c.53,0,1.06-.03,1.06-.46,0-.32-.08-.95-.08-1.45,0-.35.03-.64.18-.64.53,0,1.27,1.74,1.63,1.74.57,0,1.35-1.42,1.88-1.42.17,0,.25.11.25.43,0,1.31-.67,2.8-.67,4.08M157.81,52.77c.4,3.02,4.43,1.49,4.43,5.14,0,.53-.14,1.31-.14,1.99,0,.78.07,1.46.67,1.46s.75-.43.75-1-.15-1.28-.15-1.67c0-1.24.89-1.52,1.42-1.52,1.35,0,2.38,1.38,4.4,1.38-.46,2.27-5.15,1.67-5.15,4.15,0,1.24,1.25,1.52,2.06,1.52.75,0,1-.1,1-.74,0-.35-.08-.75-.08-1,0-.15.12-.28.28-.28h0c.78,0,4.61,2.9,4.61,3.8,0,.82-4.04,1.63-5.21,1.63-.35,0-.43-.25-.43-.39,0-.25.6-1,.6-1.42,0-.32-.53-.53-1.95-.53-.67,0-1.17.07-1.17.6,0,.95,1.56,2.12,1.56,3.01,0,.7-.43,1.13-1.56,1.13-.96,0-2.41-.75-2.41-1.99,0-.99,1.02-1.99,1.02-2.59,0-.18-.14-.46-.56-.46-1.31,0-1.67,3.47-6.32,3.87.75-.67,1.38-1.42,1.38-2.94,0-.75-.18-1.35-.18-2.17,0-1.07.5-1.6,1.2-1.6,1.31,0,1.95,1.84,2.8,1.84.46,0,.96-.42.96-1.07,0-2.7-5.18-2.3-5.18-6.1,0-1.03.35-2.3,1.31-4.07"/>
  <path class="st0" d="M164.55,75.82c0,.5.35.89.85.89.57,0,.93-.5.93-1.07,0-.74-.68-1.77-1.31-1.77-.28,0-.17.43-.25.89-.03.35-.21.78-.21,1.07M162.7,71.1c3.72.7,5.75,3.51,5.75,6.14,0,1.8-1.13,3.47-3.12,3.47-1.81,0-3.11-1.24-3.11-3.22,0-1.49,1.16-3.05,1.16-4.57,0-.6-.18-1.2-.67-1.8M157.99,77.12c.35.35.46.7.46,1.07,0,.53-.25,1.1-.25,1.7,0,.85.64,1.6,1.56,1.6,1,0,1.67-.78,1.67-1.7,0-1.35-1.39-2.66-3.45-2.66M169.73,74.85c.25.39.35.77.35,1.13,0,1-.67,1.92-.67,2.95,0,1.17.89,2.12,2.23,2.12,1.45,0,2.45-1.17,2.45-2.55,0-1.88-1.7-3.47-4.36-3.65M158.84,72.97c1.63.21,2.03.78,2.03,1.25,0,.78-.71,1.02-1.38,1.02-.5,0-1.07-.1-1.67-.1-.78,0-1.56.17-2.2.92.46.07,1.13.39,1.13,1.1,0,2.05-5.71.35-5.71,5.64,0,2.8,2.9,5.85,7.31,5.85,2.27,0,3.73-.75,3.73-1.6,0-.67-1.2-.21-1.2-.78,0-.25.42-.71.42-1.1,0-.17-.14-.49-.42-.49-.64,0-1.85,1.02-4.3,1.02-1.92,0-3.79-1.1-3.79-2.59,0-.32.14-.5.35-.5s.5.15.75.15c.21,0,.25-.15.25-.53s0-1.49.67-1.49,1.95,2.48,6.85,2.48c1.62,0,4.79-.32,5.96-1.38-.03,3.9-3.09,9.04-9.47,9.04s-10.18-5.32-10.18-10.21c0-5.42,4.43-10.36,10.5-10.36,1.56,0,2.87.53,2.87,1.2,0,.92-2.3.35-2.48,1.45M135.9,32.48c2.34,0,3.4,2.02,3.4,4.29,0,.99-.28,2.45-.74,2.45s-.39-.82-.46-1.56c-.07-.95-.25-1.17-.57-1.17-.6,0-.99,1.42-.99,2.73,0,.82.14,1.74.78,1.74.35,0,.67-.18.89-.4-.14,1.63-1.35,3.05-3.05,3.05-3.12,0-4.29-3.65-4.64-5.78-1.88,1.99-3.62,3.44-6.74,3.44-2.9,0-4.22-2.12-4.22-4.15,0-.6.21-2.17.96-2.17.89,0,.1,2.9,1.84,2.9.43,0,1.2-.35,1.63-1.52.25-.71.4-1.45.4-2.09,0-.96-.21-1.56-.92-1.56-.6,0-1.35.46-1.6.7.85-2.55,2.9-3.87,5.17-3.87,2.8,0,4.29,2.48,4.29,5.25,0,.39-.03.82-.1,1.2,1.2-1.99,2.87-3.51,4.68-3.51M133.17,36.67c0-.6-.14-.75-.28-.75-.35,0-.75.43-1.31,1.38.07,1.28.28,1.85.64,1.85.39,0,.95-1.25.95-2.48M128.3,38.12c.39,0,.89-.43,1.81-1.45.07-.46.07-.89.07-1.42,0-.7-.28-1.49-.7-1.49-1.07,0-1.6,2.84-1.6,3.58,0,.42.21.77.42.77M134.09,41.27c.89,0,1.87-3.4,1.87-5.53,0-.46-.07-.95-.28-.95-.75,0-1.99,3.51-1.99,5.42,0,.75.18,1.07.4,1.07M125.4,39.32c1.2,0,2.59-6.52,2.59-7.62,0-.28-.1-.5-.35-.5-1.1,0-2.62,6.21-2.62,7.59,0,.25.07.53.4.53"/>
  <path class="st0" d="M129.27,42.01c-1.52,0-1.6,1.85-1.6,5.57-1.13-2.45-3.02-5.07-5.22-5.07-1.49,0-2.05,1-2.05,2.73,0,.35.03.89.1,1.2.17-.6.75-.85,1.45-.85,1.52,0,3.37,1.17,4.57,2.77-1.38-.25-2.73-.5-3.87-.5-.7,0-1.35.07-1.88.32-1.03.46-2.42,1.99-2.42,4.29,0,.35.03.75.11,1.17,1.24-2.77,4.54-4.01,6.67-4.01.43,0,.75.03.99.07-1.1.99-1.35,2.73-1.42,3.9-.03.57-.25.6-.64.6,0,1.17.92,2.9.92,3.79,0,.32-.18.6-.35.67,0,1.56,1.56,2.7,1.56,3.69,0,.25-.07.46-.18.57.1.64,1.82,1.71,2.05,2.25.28.65.58.76.76.76.6,0,1.56-.71,1.56-1.35,0-.21-.18-.46-.32-.57-.67-.5-1.03-1.56-1.31-2.27-.25,0-.57-.1-.68-.52-.2-.74-.21-2.11-.49-2.92-.46-.1-.67-.28-.67-1.24,0-.46.28-2.27.28-2.91-.21,0-.5-.14-.5-.57,0-1.13,1.13-2.02,1.45-3.47,2.02,1.49,2.52,3.02,2.52,4.37,0,.7-.1,1.38-.25,2.02,1.49-.75,3.72-1.85,3.72-4.08,0-1.31-.6-2.77-4.61-3.33,1.24-.46,2.8-.7,4.12-.7,2.27,0,3.58.7,3.87,2.3.46-.7.82-1.52.82-2.27,0-1.74-1.46-2.87-3.3-2.87-2.17,0-4.07,1.13-6.14,2.52.93-1.92,1.56-3.05,2.7-3.05.18,0,.35.03.53.07-.43-1.56-2.02-3.09-2.87-3.09M189.01,67.58c1.77,0,3.19,2.3,3.19,5,0,2.87-1.35,5.99-3.76,8.11-.03-4.79-5.9-3.26-5.9-6.74,0-1.49,1.07-2.48,2.35-2.48,1.13,0,2.02.32,2.66.96-.64-.6-.96-1.45-.96-2.27,0-1.35.85-2.59,2.41-2.59M162.7,31.3c-.28-.46-1.34-.7-1.84-.7-1.56,0-2.63,1.1-2.84,2.09-.14-.35-.25-.78-.25-1.2,0-1.56,1.07-3.47,3.66-3.47,2.26,0,3.15,1.2,3.47,1.2.35,0,.7-.35,1-.35.39,0,.39.6.39,1.03,0,1.42-.64,3.87-2.23,4.75-.28-.6-.85-1.28-1.77-1.7-.21-.09-.36-.3-.35-.53,0-.39.35-.89.77-1.1M157.35,33.9c.92.89,1.74,1.28,2.73,1.28.4,0,.85-.1,1.1-.1.32,0,.53.14.53.39,0,.39-.35,1.03-.78,1.38.43.18.89.25,1.38.25,2.01,0,4.32-1.28,4.32-4.47.43.57.68,1.74.68,2.27,0,3.87-2.84,5.35-5.46,5.35-1.7,0-2.56-.57-2.78-.57-.67,0-.64,1.35-1.1,1.31-.82-.14-1.56-1.95-1.56-3.87,0-1.13.28-2.34.92-3.23M127,11.35c0-.21-1.07-.43-2.52-.43-2.3,0-1.99,1.92-3.76,1.92s-1.38-1.99-3.72-1.99c-1.42,0-2.73.25-2.73.57,0,.43,1.67.25,1.67,1.42,0,1.24-3.58,1.6-3.58,2.34,0,.25.28.35.64.35.78,0,2.02-.35,2.9-.35.5,0,.95.1.95.57,0,.89-1.92,2.48-1.92,3.19,0,.21.18.28.35.28.7,0,1.92-1.81,3.05-1.81,1.88,0,.64,4.01,1.67,4.01s.6-3.94,2.13-3.94c1.25,0,2.17,2.73,3.02,2.73.21,0,.4-.17.4-.43,0-.74-1.07-2.27-1.07-3.26,0-.6.43-.89,1-.89.82,0,1.92.5,2.52.5.21,0,.43-.07.43-.32,0-.85-3.15-1.77-3.15-2.87s1.74-1.1,1.74-1.6M135.33,14.97c0,.64,2.23,2.02,3.27,2.02.6,0,.78-.82.78-1.67,0-1.07-.46-1.1-1.38-1.1-1.17,0-2.66.32-2.66.75M139.02,21.98c0-2.12-5.76-5.99-5.82-7.66,0-.15.08-.3.21-.44.99-1.04,5.08-1.8,5.08-2.68,0-.46-.85-.46-1.28-.46-3.3,0-8.12,1.2-8.12,2.37s4.32,4.15,4.32,5.6c0,.4-.25.53-.64.53-1.2,0-3.83-1.45-5.07-1.45-.57,0-.78.39-.78.95,0,1.7,2.02,4.93,2.02,5.89,0,.1-.03.25-.18.25-.64,0-3.65-3.54-4.72-3.54-.39,0-.42.53-.42,1.31v1.2c0,.82-.03,1.31-.42,1.31-.92,0-1.35-2.59-2.23-2.59s-1.1,4.61-1.99,4.61c-1.03,0-.14-5.07-1.13-5.07-1.1,0-2.34,3.37-3.12,3.37-.28,0-.35-.28-.35-.53,0-1.02.6-2.69.6-3.69,0-.5-.14-.78-.57-.78-1.1,0-3.52,1.77-4.43,1.77-.14,0-.32-.07-.32-.21,0-.85,3.87-3.55,3.87-4.75s-5.32-.39-5.32-1.74c0-1.13,3.8-2.3,3.8-3.47,0-1.03-4.5-1.49-6.24-1.49-2.1,0-3.22.25-3.22.85,0,.92,4.75,1.2,4.75,2.02s-4.93,2.87-4.93,4.07c0,1.07,6.94.07,6.94,1.17,0,1.2-6.06,6.42-6.06,8.16,0,.4.28.57.67.57,1.85,0,6.63-3.51,7.94-3.51.46,0,.5.57.5,1.07,0,.93-.32,2.34-.32,3.37,0,.82.21,1.38.92,1.38,1.31,0,2.52-2.23,3.4-2.23,1.13,0,.46,6.56,2.17,6.56,1.45,0,2.05-7.09,2.97-7.09s1.67,2.05,2.52,2.05c1.07,0,.57-3.58,1.7-3.58,1.24,0,4.79,4.25,6.39,4.25.5,0,.67-.4.67-.89,0-1.87-2.62-6.13-2.62-7.48,0-.35.1-.46.5-.46,1.38,0,5.42,1.92,7.34,1.92.64,0,1.03-.35,1.03-.82M106.65,19.93c0,.7-2.69,3.09-3.65,3.09-.35,0-.46-.42-.46-.82,0-.7.32-1.7.71-2.02.46-.43,1.52-.64,2.34-.64.5,0,1.07.1,1.07.39M132.7,23.58c0,1.24,4.43,7.31,5.29,7.31.71,0,1.24-1.24,1.24-2.3,0-.28-.07-.57-.21-.78-.64-.89-5.14-4.43-6.14-4.43-.11,0-.18.1-.18.21M189.65,12.84c0,.5.39.89.89.89s.89-.39.89-.87v-.02c0-.5-.4-.89-.89-.89s-.89.39-.89.87v.02M183.88,20.67c0-2.52-6.02-3.15-6.02-3.72,0-.46,3.37-1.24,5.11-1.28-2.66-3.4-6.45-3.05-6.45-3.65,0-.35,2.84-1.07,5.46-1.07,2.2,0,4.25.5,4.25,2.17,0,.93-.75,1.88-.75,3.3,0,.78.39,1.45,1.42,1.45,1.1,0,1.35-1.17,1.35-2.42,0-1.02-.18-1.8-.18-2.3,0-1.49,1.02-2.48,2.48-2.48,1.2,0,1.49.53,3.27.53-.96.57-1.31,1.6-1.31,2.09,0,1.49.96,2.52.96,5.57,0,5.6-5.25,7.59-11.67,7.59-1.77,0-3.64-.14-5.49-.42-.28-.03-.35-.1-.35-.28,0-.46,2.52-.71,2.52-2.98,0-.89-.28-1.74-.28-2.05,0-.17.14-.28.28-.28.53,0,1.6,2.05,3.58,2.05.52,0,1.84-.18,1.84-1.8M189.87,17.09c0,3.15-2.29,5.57-6.45,6.24.46.03.89.03,1.31.03,4.86,0,6.63-2.2,6.63-4.04,0-1.03-.57-1.95-1.5-2.23M187.42,62.79c.57-1.77,1.28-3.02,2.44-4.93-1.16-.6-4.25-1.88-4.25-3.97,0-2.45,3.05-4.36,3.69-4.36.28,0,.35.25.35.7,0,1.27-.6,3.33-.6,4.43,0,.99.64,1.95,1.2,1.95.6,0,2.27-2.13,2.27-4.22,0-3.76-3.3-4.9-4.32-4.9-.96,0-2.7,1.56-6.78,1.56-7.62,0-9.36-7.55-9.36-10.85,0-.14.03-.18.07-.18.18,0,.92.93,3.33.93,1.24,0,2.38-.32,4.19-.32,4.25,0,6.13,2.95,8.76,6.7,1.59.99,5.39,2.59,5.39,7.09,0,3.97-4.23,6.17-5.24,10.43,1.62-.17,2.59-3.09,4.25-3.09.85,0,1.25.67,1.25,1.74,0,1.56-.89,3.9-2.6,5.35.03-.15.03-.32.03-.53,0-.99-.39-2.41-1.53-2.41-1.77,0-2.34,1.92-3.33,3.51-1.03-3.62-2.42-6.88-4.89-8.87-2.51-2.02-6.84-.92-6.84-4.61,0-1,.64-2.41.64-3.55,0-.39-.07-.75-.28-1.03,3.4,1.28,2.2,3.55,4.3,5.89,1.31,1.49,4.92,2.9,7.02,9.04.03-.18.07-.64.07-.95,0-5.25-6.94-10.39-7.55-12.52,4.04.46,4.74,1.45,6.66,6.77.39,1.1,1.67,3.83,1.67,5.17M186.5,45.6c0-.75-1.88-.82-2.06-2.9-.03-.32-.14-.89-.53-.89-.64,0-.15,1.95-.85,1.95-1.63,0-2.16-3.19-2.77-3.19-.15,0-.31.1-.31.53,0,.39.07.64.07,1.1s-.1.78-.53.78c-.96,0-1.81-2.23-2.63-2.23-.18,0-.35.1-.35.28,0,.43.7,1.2.7,1.6,0,.85-2.3.39-2.3,1.1,0,.32.32.42.75.42.75,0,1.92-.32,2.52-.32.35,0,.89.07.89.53,0,.5-1.28,1.13-1.28,1.6,0,.21.21.32.39.32.96,0,2.66-1.67,3.86-1.67.21,0,.74.1.74.43,0,.46-1.2,1.27-1.2,1.95,0,.18.1.4.32.4.64,0,1.49-1.67,2.69-1.67.46,0,1.13.18,1.5.18.28,0,.4-.18.4-.28"/>
  <path class="st0" d="M160.08,24.36c.57,0,.68,1.38.78,2.2.07.43.14.46.32.46.43,0,1.1-1.63,1.56-1.63.67,0,2.48,1.88,5.5,1.88,4.29,0,8.34-3.02,8.34-8.33s-3.62-8.16-8.62-8.16c-2.37,0-4.12,1.17-5.04,1.17-.56.03-1.41-1.38-1.84-1.38-.17,0-.35.35-.35.95,0,.4,0,1.63-.43,1.63-.85,0-4.15-2.45-4.15-1.56,0,.82,2.2,3.3,2.2,3.94s-2.17,1.24-2.17,1.67c0,.78,2.3.92,2.3,1.92s-2.42,1.77-2.42,2.52c0,.6,2.42.17,2.42.92s-1.77,3.22-1.77,3.94c0,.18.03.18.18.18.67,0,2.69-2.3,3.19-2.3M161.11,18.54c0-.39-1.38-1.13-1.38-1.56,0-.07.07-.1.18-.1.4,0,1.07.15,1.6.15.46,0,.53-1.99.88-1.99.25,0,.67,1.88,1.07,1.88.46,0,1.31-.53,1.67-.53.07,0,.14.03.14.1,0,.25-.89,1.2-.89,1.49,0,.32,1.99.7,1.99,1,0,.35-2.02.32-2.02.64,0,.25.75,1.24.75,1.56,0,.07-.03.11-.1.11-.28,0-1.38-.5-1.7-.5-.39,0-1.02,1.45-1.34,1.45-.1,0-.18-.14-.18-.32l-.08-1.42c0-.14-.07-.28-.25-.28-.43,0-1.25-.03-1.5-.03-.18,0-.25-.03-.25-.1,0-.28,1.42-1.28,1.42-1.52M168.03,25.28c-2.48,0-4.12-1.24-4.12-1.88,0-.32.21-.53.5-.53.78,0,2.48,1.2,3.05,1.2.14,0,.25-.07.25-.28,0-.64-.6-1.7-.6-2.23,0-.14.1-.25.32-.25.95,0,2.38.4,3.13.4.25,0,.32-.15.32-.28,0-.78-2.3-2.3-2.3-2.77,0-.43,2.87-1.07,2.87-1.74,0-.71-3.89-.21-3.89-.89,0-.5.75-1.35.75-1.74,0-.18-.14-.25-.39-.25-.32,0-2.02.67-2.73.67-.35,0-.78-.07-.78-.57,0-.82,1.38-1.7,3.55-1.7,3.51,0,5.6,2.42,5.6,6.45,0,5.11-3.58,6.39-5.49,6.39M144.01,86.63c0,.32-.1.68-.4,1.03-.39-.7-1.49-1.07-1.99-1.07-3.65,0-2.27,5.29-6.17,5.29-1.63,0-1.77-.21-2.37-.21-.25,0-.39.1-.39.32,0,.93,1.31,3.19,4.97,3.19s7.16-2.23,7.16-5c0-.46-.1-.95-.32-1.45.14-.21.5-.35.82-.35.57,0,.89.64,1.42.64.57,0,1-.43,1-1,0-.46-.25-.78-.67-1,.28-.21.5-.57.5-.95,0-.6-.42-1.17-1.13-1.17-.32,0-.53.1-.78.35-.07-.64-.42-1.24-1.1-1.24-.53,0-.92.39-.92,1,0,.56.4,1.02.4,1.62"/>
  <path class="st0" d="M134.48,87.98c-1.07,0-2.66-1.13-2.66-1.77,0-.53.5-.82.89-.82.89,0,2.48,1.1,2.48,2.02,0,.25-.18.57-.7.57M124.58,80.04c2.84.7,4.25,2.23,4.54,4.04.28,1.74.64,3.15,1.31,3.87.89,1,2.62,1.87,4.15,1.87,1.28,0,2.3-.42,2.3-1.59,0-1.28-1.74-4.15-4.29-4.15-.25,0-.57.03-.92.03-.32,0-.78-.07-1.07-.32-.57-.5-.74-3.15-1.8-4.75-1.17-1.77-2.45-2.27-4.19-2.27-1.24,0-2.62.67-2.62,1.67,0,.6.32,1.03,2.59,1.6"/>
  <path class="st0" d="M142.39,75.7c0-1.6-3.3-1.63-3.3-4.04,0-.6.4-1.63,1.17-2.73.32,1.85,1.07,2.8,2.66,3.4,3.15,1.17,3.58,2.94,3.58,4.82,0,3.2-2.23,7.17-7.98,7.17-4.62,0-7.91-4.12-7.91-7.59,0-.96.25-2.02.85-2.02.53,0,.71.42,1.13.85,1.6,1.6,3.33,2.02,5.85,2.02,2.27,0,3.94-.92,3.94-1.88M142.53,78.26c-1.21.56-1.7.46-1.7,1.7,0,.46-.1,1.06-.1,1.38,0,.42.07.68.57.68,1.28,0,3.3-2.17,3.3-4.01,0-.5-.28-.7-.6-.7-.28,0-.6.57-1.45.95M131.22,60.35c0-2.27,5.39-3.47,5.39-6.27,0-.46-.18-1.27-.5-1.88,1.88,1.03,3.26,2.77,3.26,4.19,0,2.45-2.55,3.58-2.55,5.11,0,1.77,2.73,2.05,2.73,4.25,0,1.8-2.59,3.9-2.59,6.24,0,1.8,1.28,3.29,3.23,3.54-.64.15-1.2.25-1.8.25-3.58,0-7.27-2.94-7.27-6.45,0-1.74.75-3.26,1.88-4.36,1,.85,1.99,1.42,2.62,1.42.57,0,.82-.28.82-.7,0-1.31-5.22-2.52-5.22-5.32M110.65,77.87c.15,1.21,1.28,2.13,2.55,1.99.46-.05.89-.18,1.17-.35.28,1.13,1.24,1.86,2.52,1.69,1.31-.17,2.19-1.19,2.05-2.51-.03-.28-.09-.56-.21-.82,0,0,.17-.02.3-.04,1.28-.24,2.14-1.27,2.04-2.51-.14-1.27-1.29-2.23-2.48-2.08-.46.06-.89.23-1.18.48-.32-1.07-1.32-1.99-2.68-1.76-1.23.21-2.05,1.25-1.93,2.58.02.21.07.46.18.7l-.35.05c-1.03.15-2.16,1.19-1.99,2.57M117.28,76.48c.07.74-.47,1.4-1.21,1.47-.72.07-1.37-.44-1.47-1.16-.09-.74.45-1.41,1.19-1.5s1.41.45,1.5,1.19"/>
</svg>