<?xml version="1.0" encoding="UTF-8"?>
<svg id="Layer_1" xmlns="http://www.w3.org/2000/svg" version="1.1" viewBox="0 0 300 150">
  <!-- Generator: Adobe Illustrator 29.5.0, SVG Export Plug-In . SVG Version: 2.1.0 Build 137)  -->
  <defs>
    <style>
      .st0 {
        fill: #1515c8;
      }
    </style>
  </defs>
  <path class="st0" d="M188.05,80.63h6.07s-3.01-6.28-3.01-6.28c0,0-3.06,6.29-3.06,6.28Z"/>
  <path class="st0" d="M147,0c-41.42,0-75,33.57-75,75s33.58,75,75,75,75-33.57,75-75S188.42,0,147,0ZM112.85,89.16l-12.99-11.3v9.49h-8.01v-26.33l13.01,11.32v-9.49h8v26.3ZM128.08,87.33h0s-8.01,0-8.01,0v-24.48s8.01.03,8.01,0v24.48ZM143.4,89.15l-14-26.3h8.54s5,10.17,5.46,10.97l5.49-10.97h8.53s-14.02,26.3-14.02,26.3ZM166.71,69.07v3.44h7.69s0,4.63,0,4.63h-7.69v3.81h7.69v6.39h-15.68v-24.48h15.68v6.21h0,0s0,0,0,0h-7.69ZM197.42,87.33l-1.31-2.67h-9.99l-1.35,2.67h-8.37s9.76-17.73,14.72-26.49h0s0,0,0,0c0,0,0,0,0,0l14.73,26.49h-8.42Z"/>
</svg>