<?xml version="1.0" encoding="UTF-8"?>
<svg id="Layer_1" xmlns="http://www.w3.org/2000/svg" version="1.1" viewBox="0 0 300 150">
  <!-- Generator: Adobe Illustrator 29.5.0, SVG Export Plug-In . SVG Version: 2.1.0 Build 137)  -->
  <defs>
    <style>
      .st0 {
        fill: #034ea2;
      }

      .st1 {
        fill: #4395d1;
      }
    </style>
  </defs>
  <path class="st1" d="M144.07,12.04c-3.58.55-7.01,1.59-10.19,3.02,0,0,3.72,7.17,5.6,11.98,2.73,6.97,3.42,13.55,3.42,13.55,1.79-.95,4.15-1.67,6.27-1.85,0,0,.08-6.7-1.4-13.61-1.73-8.07-3.7-13.1-3.7-13.1h0ZM155.77,12.04s-1.97,5.03-3.7,13.11c-1.48,6.91-1.34,13.61-1.34,13.61,2.13.18,4.43.9,6.22,1.85,0,0,.69-6.58,3.42-13.55,1.88-4.81,5.6-11.99,5.6-11.99-3.24-1.47-6.67-2.48-10.19-3.02ZM126.09,19.77c-2.87,2.21-5.46,4.77-7.62,7.67,0,0,6.01,2.63,10.42,6.89,6.02,5.83,8.18,11.7,8.18,11.7,1.13-1.8,2.61-3.34,4.37-4.53,0,0-2.26-7.07-5.88-12.26-3.63-5.19-9.46-9.46-9.46-9.46h0ZM173.81,19.77s-5.89,4.27-9.52,9.46c-3.63,5.19-5.88,12.27-5.88,12.27,1.75,1.19,3.24,2.74,4.37,4.53,0,0,2.14-5.87,8.18-11.7,4.4-4.26,10.42-6.89,10.42-6.89-2.16-2.89-4.7-5.47-7.56-7.67h0ZM114.39,34.39c-1.51,3.29-2.55,6.78-3.08,10.36,0,0,5.36-.58,13.05,2.35,6.32,2.41,10.47,6.38,10.47,6.38.05-1.95.56-3.91,1.29-5.6,0,0-2.04-3.8-8.01-7.9-6.41-4.4-13.72-5.6-13.72-5.6h0ZM185.45,34.39s-7.31,1.2-13.72,5.6c-5.97,4.09-8.01,7.9-8.01,7.9.73,1.69,1.24,3.65,1.29,5.6,0,0,4.15-3.97,10.47-6.39,7.69-2.93,13.05-2.35,13.05-2.35-.53-3.58-1.57-7.07-3.08-10.36h0Z"/>
  <path class="st0" d="M117.97,50.79c-4.56-.02-7.11.84-7.11.84.1,3.69.73,7.22,1.79,10.58,0,0,5-2.51,11.09-2.8,7.68-.37,12.94,1.68,12.94,1.68-.95-1.72-1.53-3.67-1.74-5.71,0,0-6.14-3.45-11.76-4.2-1.73-.24-3.47-.37-5.21-.39ZM181.87,50.79c-1.52,0-3.26.13-5.21.39-5.62.75-11.7,4.2-11.7,4.2-.21,2.01-.82,3.95-1.79,5.71,0,0,5.26-2.05,12.94-1.68,6.09.29,11.09,2.8,11.09,2.8,1.09-3.43,1.69-6.99,1.79-10.58,0,0-2.55-.86-7.11-.84ZM130.07,62.72c-1.36.07-2.74.24-4.03.51-7.83,1.58-11.26,4.31-11.26,4.31,1.57,3.25,3.59,6.27,5.99,8.96,0,0,3.22-3.06,8.79-5.71,7.53-3.59,15.18-2.85,15.18-2.85-2.7-1-5.06-2.71-6.78-4.93,0,0-3.82-.49-7.9-.28h0ZM165.91,62.72c-2.33.07-4.03.28-4.03.28-1.74,2.24-4.06,3.95-6.72,4.93,0,0,7.59-.73,15.12,2.85,5.57,2.65,8.79,5.71,8.79,5.71,2.42-2.69,4.46-5.71,6.05-8.96,0,0-3.49-2.73-11.31-4.31-2.58-.52-5.56-.57-7.9-.5h0ZM149.95,68.6c-15.93,0-25.26,11.7-25.26,11.7,2.84,2.39,6.01,4.38,9.41,5.88,0,0,4.86-9.52,15.85-9.52s15.79,9.52,15.79,9.52c3.4-1.5,6.57-3.48,9.41-5.88,0,0-9.27-11.71-25.2-11.71h0ZM-.14,96.99v2.91h3.98v25.31H-.14v2.86h11.03v-2.86h-3.92v-9.41h5.88c2.92,0,5.28-.39,7.51-2.52,1.96-1.87,2.97-4.3,2.97-7,0-2.83-1.27-5.59-3.53-7.28-2.13-1.56-4.66-2.02-7.22-2.02H-.14ZM138.47,96.99v2.69h3.81v10.81c-1.83-3.57-5.51-5.66-9.46-5.66-6.35,0-11.65,5.47-11.65,11.82,0,2.26.78,4.74,1.96,6.61,2,3.17,6.19,5.43,9.8,5.43,3.96,0,7.39-2.04,9.35-5.43v4.82h6.72v-2.69h-3.86v-28.39h-6.66ZM163.33,96.99v2.91h3.98v25.31h-3.98v2.86h10.81v-2.86h-3.7v-25.31h6.11c2.35,0,4.33.04,6.16,1.74,1.57,1.43,2.35,3.48,2.35,5.66,0,2.53-1.31,4.89-3.47,6.22-2.04,1.26-4.31,1.18-6.66,1.18h-1.18l9.63,13.38h6.05v-2.86h-4.14l-6.5-8.51c5.31,0,9.41-4.31,9.41-9.57,0-3.05-1.18-5.84-3.53-7.84-2.39-2.04-4.9-2.29-7.9-2.29h-13.44ZM195.87,96.99v4.48h2.86v-4.48h-2.86ZM289.39,96.99v2.69h3.81v10.81c-1.83-3.57-5.51-5.66-9.47-5.66-6.35,0-11.7,5.47-11.7,11.82,0,2.26.84,4.74,2.02,6.61,2,3.17,6.19,5.43,9.8,5.43,3.96,0,7.39-2.04,9.35-5.43v4.82h6.66v-2.69h-3.81v-28.39h-6.66ZM6.98,99.91h5.54c2,0,3.55.19,5.21,1.46,1.54,1.22,2.45,3.07,2.46,5.04,0,2-.79,3.79-2.35,5.1-1.56,1.3-3.31,1.46-5.26,1.46h-5.6v-13.05ZM35.48,104.83c-6.61,0-11.76,5.56-11.76,12.04s5.36,11.82,11.93,11.82c4.68.01,8.94-2.73,10.86-7h-3.02c-1.65,2.87-4.64,4.42-7.95,4.42-4.7,0-8.7-3.71-8.96-8.4h20.89v-.9c0-6.74-5.2-11.99-11.98-11.99h0ZM81.63,104.83c-3.13,0-6.24,1.54-7.67,4.37v-3.98h-6.72v2.69h3.86v17.47h-3.86v2.69h10.53v-2.69h-3.81v-9.52c0-2.13.03-4.08,1.51-5.82,1.31-1.52,3.38-2.35,5.38-2.35,2.18,0,4.72.61,5.94,2.74,1.04,1.79,1.12,3.78,1.12,5.82v9.13h-3.86v2.69h10.53v-2.69h-3.81v-10.19c0-2.78-.72-4.86-1.29-5.99-1.48-3-5.27-4.37-7.84-4.37h0ZM106.88,104.83c-6.66,0-12.04,5.33-12.04,11.99s5.32,11.87,11.93,11.87,11.99-5.44,11.99-12.1-5.39-11.76-11.87-11.76h0ZM213.73,104.83c-3.3,0-6.17,1.42-8.34,3.64-2.09,2.13-3.36,5.14-3.36,8.4,0,6.4,5.34,11.82,11.82,11.82,5,0,9.62-3.04,11.31-7.78h-3.19c-1.35,3.04-4.58,4.87-7.84,4.87-5.13,0-9.18-3.87-9.18-8.96s3.91-9.13,8.96-9.13c3.18,0,6.19,1.73,7.84,4.42h2.69v-6.89h-2.69v3.25c-2.08-2.35-4.78-3.64-8.01-3.64h0ZM238.21,104.83c-4.13,0-8.04,2.07-9.91,5.38-.96,1.7-1.9,3.24-1.9,6.55-.09,2.52.72,4.68,1.85,6.55,2,3.31,5.79,5.38,9.97,5.38,3.96,0,7.35-1.94,9.35-5.38v4.76h6.61v-2.69h-3.75v-17.47h3.75v-2.69h-6.61v4.98c-2.09-3.48-5.22-5.38-9.35-5.38ZM49.03,105.23v2.69h3.87v17.47h-3.87v2.69h10.53v-2.69h-3.81v-9.18c0-4.87,2.23-7.86,7.28-8.29v-2.69c-3.26.13-6.24,1.47-7.28,4.65v-4.65h-6.72ZM192.06,105.23v2.69h3.81v17.47h-3.92v2.69h10.59v-2.69h-3.81v-20.16h-6.66ZM257.25,105.23v2.69h3.86v17.47h-3.86v2.69h10.53v-2.69h-3.81v-9.18c0-4.87,2.24-7.86,7.28-8.29v-2.69c-3.27.13-6.24,1.47-7.28,4.65v-4.65h-6.72ZM35.43,107.47c4.65,0,8.7,3.24,9.35,7.9h-18.2c.52-4.3,4.46-7.9,8.85-7.9ZM133.26,107.58c5,0,9.13,4.02,9.13,9.07s-4,9.3-9.13,9.3-9.24-4.09-9.24-9.13c0-5.1,4.12-9.23,9.22-9.24,0,0,.02,0,.02,0h0ZM284.13,107.58c5,0,9.13,4.02,9.13,9.07s-4,9.3-9.13,9.3-9.18-4.09-9.18-9.13,4.05-9.24,9.18-9.24h0ZM105.87,107.69c.31-.03.64,0,.95,0,5.04,0,9.01,4.11,9.01,9.07,0,5-4.04,9.06-9.04,9.07-.01,0-.02,0-.03,0-5.09,0-9.07-4.17-9.07-9.13,0-4.66,3.54-8.55,8.18-9.02h0ZM237.53,107.69c.31-.03.64,0,.95,0,5,0,9.07,4.02,9.07,9.02s-4.01,9.18-9.18,9.18-9.13-4.15-9.13-9.07,3.67-8.66,8.29-9.13h0Z"/>
</svg>