<?xml version="1.0" encoding="UTF-8"?>
<svg id="layer" xmlns="http://www.w3.org/2000/svg" version="1.1" viewBox="0 0 300 150">
  <!-- Generator: Adobe Illustrator 29.5.0, SVG Export Plug-In . SVG Version: 2.1.0 Build 137)  -->
  <path d="M300,49.2v-1.3h-20v1.3h6.6v43.95h-6.6v1.3h20v-1.3h-6.6v-43.95h6.6ZM248.95,82.6l-11.9-34.5-.05-.15h-14.9v1.3h7.2v43.95h-6.55v1.3h14.5v-1.3h-6.6v-42.55l15.35,44.3,15.45-44.75v43h-6.55v1.3h20v-1.3h-6.55v-43.95h6.55v-1.3h-14l-11.95,34.65ZM218.8,80.05c-.15,1.35-2,13.1-12.7,13.1h-12.05v-23h5.05c6,0,7.1,4.55,8.2,9.4l.05.3h1.05v-20.55h-1.05l-.05.15c-1.85,7.65-3.55,9.4-9.25,9.4h-4v-19.65h10.55c7.05,0,9.6,3.55,11.75,10.2l.05.1h1.05v-11.6h-36.85v1.3h6.6v43.95h-6.6v1.3h39.3v-14.55h-1.05l-.05.15ZM137.4,60.15h1.05l.05-.15c3.05-10.8,8.75-10.8,11.8-10.8h3.55v43.95h-6.6v1.3h20v-1.3h-6.55v-43.95h3.55c3.05,0,8.75,0,11.8,10.8l.05.15h1.05v-12.25h-39.8v12.25h.05ZM125.2,74.25h-13.7l6.85-18.15,6.85,18.15ZM122.25,46.9l-.05-.1h-1.8l-17.5,46.4h-5.15v1.3h13.1v-1.3h-6.5l6.65-17.65h14.75l6.65,17.65h-6.5v1.3h19.1v-1.3h-5.25l-17.5-46.3ZM100.25,80.45v-31.25h6.55v-1.3h-14.5v1.3h6.6v29.95c0,6.15-1,7.95-2.7,10.2-2.45,3.25-5.95,4.8-11.05,4.8-7.35,0-10.5-4.15-10.5-13.8v-31.1h6.55v-1.3h-20v1.3h6.55v30.45c0,10.3,5.6,15.75,16.2,15.75,6.25,0,10.6-1.7,13.25-5.25,2.5-3.35,3.05-6.35,3.05-9.75ZM45.4,77.9h7.75v5.25c0,7.55-5.7,10.95-11,10.95-4.4,0-6.75-.8-9.25-3.05-3.8-3.4-5.65-9.9-5.65-19.75s1.55-23.25,15-23.25c10.4,0,13.3,8.2,14.05,13.05v.15h1.05v-13.35h-1.25l-.05.05c-.6.75-1.1,1.3-2.75,1.3-1.25,0-2.2-.4-3.35-.9-1.65-.75-3.7-1.6-7.65-1.6-5.8,0-11,2.2-15.35,6.6-5,4.95-7.5,11-7.5,17.95,0,8.4,4.1,14.25,7.6,17.7,4.5,4.5,9,6.4,15.15,6.4,5.1,0,8.15-1.6,10.4-2.7,1.4-.7,2.5-1.3,3.65-1.3,1.25,0,1.55.2,2.45,1.15l.05.05h1.05v-14.7h4.6v-1.3h-18.9v1.3h-.1ZM13.45,49.2h6.55v-1.3H0v1.3h6.6v43.95H0v1.3h20v-1.3h-6.55v-43.95Z"/>
</svg>