<?xml version="1.0" encoding="UTF-8"?>
<svg id="Layer_1" xmlns="http://www.w3.org/2000/svg" version="1.1" viewBox="0 0 300 150">
  <!-- Generator: Adobe Illustrator 29.5.0, SVG Export Plug-In . SVG Version: 2.1.0 Build 137)  -->
  <defs>
    <style>
      .st0 {
        fill: #e20025;
      }
    </style>
  </defs>
  <path class="st0" d="M67.35,75l-8.88-18.17h-13.42v36.35h13.42v-18.17l8.88,18.17,8.88-18.17v18.17h13.42v-36.35h-13.42l-8.88,18.18ZM104.4,56.83l-10.44,36.35h13.42l1.71-5.97h14.32l1.71,5.96h13.42l-10.44-36.35h-23.72ZM110.8,81.24l5.45-18.98,5.45,18.98h-10.9ZM167.95,56.84h-25.12v36.33h13.42v-15.14h11.7c5.85,0,10.59-4.75,10.59-10.6s-4.74-10.6-10.59-10.6M159.39,71.88h-2.91v-10.88h2.91c3.02,0,5.96,1.62,5.96,4.92s-2.59,5.96-5.96,5.96M183.2,93.17h13.42v-15.17h22.26v-5.97h-22.26v-9.24h22.26v-5.96h-35.68v36.35ZM300.02,62.79v-5.96h-35.69v36.35h35.69v-5.97h-22.26v-9.21h22.26v-5.97h-22.26v-9.24h22.26ZM259.29,65.92c0-5.02-4.07-9.08-9.08-9.08h-26.63v36.34h13.65v-15.05h2.91c3.29,0,5.96,2.67,5.96,5.96,0,.1,0,.2,0,.29v8.79h13.2v-9.08c0-.1,0-.2,0-.3-.16-4.88-4.17-8.79-9.08-8.79,5.02,0,9.08-4.07,9.08-9.08M240.14,71.89h-2.91v-10.87h2.91c2.95,0,5.96,1.62,5.96,4.91s-2.67,5.96-5.96,5.96M18.41,56.82C8.37,56.82.23,64.96.23,75c0,.77.05,1.53.14,2.28,1.12,8.97,8.77,15.91,18.04,15.91s16.92-6.94,18.04-15.91h-1.75c-1.11,8.01-7.98,14.17-16.29,14.17s-15.18-6.16-16.29-14.17h0c-.1-.75-.16-1.52-.16-2.28,0-9.08,7.37-16.45,16.45-16.45s16.45,7.37,16.45,16.45c0,.77-.06,1.54-.16,2.28h1.75c.1-.75.14-1.5.14-2.28,0-10.04-8.14-18.18-18.18-18.18M30.43,75.72c0-.14-.02-.27-.03-.37-.22-1.21-.64-2.37-1.26-3.43-.63-1.1-1.57-2.14-2.49-2.92-.62-.47-1.41-.64-2.17-.47-.29-.84-.98-1.54-1.76-1.88-1.38-.5-2.84-.76-4.31-.76-1.5,0-2.95.26-4.29.75-.1.04-.22.09-.35.16-.7.36-1.22,1-1.44,1.75-.8-.14-1.66.09-2.28.54-.94.79-1.74,1.75-2.36,2.82-.61,1.06-1.04,2.22-1.26,3.43-.02.1-.03.22-.03.37-.02.55.12,1.09.42,1.55h0c.23.37.55.67.93.89.45.26.96.38,1.48.36l5.91-.02c.42.02,1.53.02,2.38.02v5.57h1.78v-5.57c.85,0,1.96,0,2.39-.02l5.91.02c.52.03,1.03-.1,1.48-.36.38-.22.7-.52.93-.89h-11.6,11.6c.29-.46.44-1,.41-1.55M15.61,76.5c-.09.15-.26.24-.43.22l-6.02.02c-.18.02-.37-.02-.53-.12-.3-.18-.48-.51-.45-.86.18-1.07.52-2.03,1.05-2.94.51-.89,1.18-1.68,1.96-2.34l.03-.02c.29-.22.69-.25,1-.06.17.1.3.24.37.41l3,5.22c.09.14.1.32.02.48M18.41,76.74c-.22,0-.41-.12-.5-.32l-3.72-6.4c-.13-.19-.2-.41-.2-.64,0-.45.26-.83.64-1.01,1.25-.46,2.49-.69,3.78-.69s2.55.23,3.7.65l.04.02c.41.17.68.58.68,1.03,0,.23-.07.46-.21.65l-3.72,6.4c-.09.19-.29.31-.5.31M28.19,76.62c-.16.09-.34.14-.53.12l-6.02-.02c-.17.02-.34-.07-.43-.22-.09-.15-.08-.33.02-.48l3-5.22c.08-.17.2-.31.37-.41.32-.18.71-.16,1,.06l.03.02c.79.66,1.45,1.45,1.96,2.34.52.91.87,1.88,1.05,2.94.03.35-.15.68-.45.86"/>
</svg>