<?xml version="1.0" encoding="UTF-8"?>
<svg id="Layer_1" xmlns="http://www.w3.org/2000/svg" version="1.1" viewBox="0 0 292.08 150">
  <!-- Generator: Adobe Illustrator 30.1.0, SVG Export Plug-In . SVG Version: 2.1.1 Build 136)  -->
  <defs>
    <style>
      .st0 {
        fill: #fff;
      }
    </style>
  </defs>
  <path class="st0" d="M194.13,80.26h0c-1.02.33-1.83.64-2.52.96-.69.32-1.25.66-1.74,1-.48.34-.9.7-1.25,1.07-1.95,2.25-2.11,4.4-1.22,6.22.16.29.36.56.61.79,1.41,1.23,2.96,1,4.24.7.93-.27,1.74-.69,2.96-1.68.64-.52,1.41-1.24,2.13-2,.06-.55.11-1.09.15-1.64.15-2.11.12-4.22.12-6.33-1.17.25-2.34.55-3.48.91Z"/>
  <path class="st0" d="M88.44,74.78v.02c-.93,0-1.57.04-3.07.18v16.47c1.41.14,2.71.21,3.48.21,6.42,0,10.7-3.44,10.7-8.62s-4.1-8.26-11.11-8.26Z"/>
  <path class="st0" d="M98.09,64.14c0-4.16-3.48-6.81-8.95-6.81-.94,0-1.98.11-3.77.4v14.81c.9.05,1.67.08,2.32.08,6.03,0,10.4-3.56,10.4-8.48Z"/>
  <path class="st0" d="M119.69,67.78c-2.89,0-5.43,2.01-6.7,5.31-.68,1.75-.97,3.84-.97,6.92,0,7.72,3.05,12.65,7.81,12.66,4.85,0,7.65-4.49,7.65-12.3,0-5.1-.89-8.23-2.94-10.41-1.33-1.41-3.05-2.18-4.85-2.18Z"/>
  <path class="st0" d="M45.64,56.52c-7.57,0-12.26,6.86-12.26,17.96s4.89,17.91,12.07,17.91,11.86-6.97,11.86-17.71-4.74-18.16-11.67-18.16Z"/>
  <path class="st0" d="M0,.27v149.48h292.08V.27H0ZM285.22,141.86H7.7V6.94h277.52v134.92Z"/>
  <path class="st0" d="M282.07,9.05H10.13v130.05h271.94V9.05ZM231.07,57.94h0c.09-.38.23-.76.41-1.12.94-1.58,2.07-1.84,3.2-1.56.51.16,1.05.47,1.56,1.17.7,1.01.92,2.27.65,3.52-.08.39-.22.77-.41,1.13-1.16,1.88-2.6,2.08-4.04,1.14-.28-.21-.52-.47-.72-.75-.7-1.01-.92-2.27-.65-3.53ZM197.78,59.82c.55-.35,1.12-.67,1.55-.89.73-.36,1.13-.47,1.6-.51.54.01,1.1.04,1.73.92.4.85.5,1.8-.88,2.82-.26.15-.53.27-.81.36-.55.19-1.39.39-2.14.57l-6.93,1.68-.96-1.33c2.28-1.2,4.56-2.38,6.84-3.62ZM154.35,53.24c1.47,0,2.67,1.5,2.67,3.35s-1.2,3.35-2.67,3.35-2.67-1.5-2.67-3.35,1.19-3.35,2.67-3.35ZM44.76,94.65c-10.53,0-18-8.01-18-19.31,0-12.36,7.94-20.98,19.32-20.98,10.76,0,17.85,7.9,17.85,19.87s-8.06,20.42-19.17,20.42ZM103.24,90.42h-.01c-2.4,2.35-5.86,3.39-11.15,3.41l-18.03.06c-.36,0-.47-.15-.48-.37l-.02-1.45c0-.2.27-.36.63-.36h2.19c2.18,0,3.23-1.74,3.23-5.33v-24.54c0-3.13-.97-4.63-3.01-4.63h-2.03c-.38,0-.6-.14-.63-.4v-1.41c0-.17.18-.25.62-.25h17.75c7.48,0,11.93,3.29,11.93,8.81,0,2.78-1.17,5.13-3.36,6.72-1.88,1.37-3.05,1.85-6.42,2.63,4.68.69,7.23,1.81,9.3,4.08,1.58,1.73,2.41,3.89,2.41,6.34s-1.12,4.92-2.92,6.69ZM119.04,94.79h-.01c-7.17,0-12.24-5.62-12.24-13.58,0-8.93,5.85-15.54,13.78-15.54,7.11,0,12.2,5.62,12.2,13.48,0,9.01-5.83,15.64-13.73,15.64ZM147.39,68.44h-.02c0,.43-.04.5-.38.5h-7.25l-.04,2.75-.09,6.74-.03,3.31v2.44c0,5.82.74,7.7,3.01,7.7,1.28,0,2.55-1.17,3.13-2.87.14-.42.26-.58.45-.58.06,0,.12.01.17.04l.83.34c.09.04.14.15.14.32-.01.2-.04.4-.1.59-.24.91-.66,1.76-1.21,2.5-1.25,1.65-3.07,2.57-5.12,2.57-3.51,0-5.55-2.47-5.55-6.74,0-.15.01-.47.04-.97.21-4.02.35-10.07.42-18.15h-3.55c-.36,0-.41-.08-.41-.55v-1.2c0-.55.04-.62.51-.74,2.79-.71,4.59-2.94,5.71-7.07.3-1.11.44-1.35.78-1.35h.68c.22,0,.25.06.25.51v8.2h7.14c.37,0,.49.11.49.45v1.26ZM159.67,93.83l-10.74.06c-.39,0-.55-.21-.58-.62v-.96c0-.32.19-.45.65-.45h.32c2.96,0,3.32-.96,3.32-8.71v-9.4c0-4.83-.14-5.13-2.22-5.13h-.62c-.92,0-1.05-.09-1.05-.66v-.91c0-.29.09-.35.6-.35h.35c.52,0,1.17-.04,2.51-.13,1.29-.09,2.32-.19,3.08-.29.28-.04.55-.07.83-.08.49,0,.6.09.6.53,0,.1,0,.23-.02.38-.13,1.85-.23,6.94-.23,11.83,0,5.24.09,9.35.28,12.55l.29.04c1.54.23,2.21.32,2.65.32h.19c.28,0,.4.11.4.4v.96h.03c0,.52-.11.62-.64.62ZM180.47,88.87c-2.4,3.96-5.43,5.88-9.28,5.88-6.68,0-11.54-5.58-11.54-13.28,0-9.57,6.01-15.7,15.4-15.7,1.54.02,3.07.26,4.55.71l.41,8.3v.14c0,.31-.05.37-.33.37h-1.04c-.25,0-.34-.12-.41-.55-.67-3.79-3.37-6.49-6.49-6.49-4.39,0-7.5,4.05-7.5,9.75,0,7.92,3.64,13.54,8.77,13.54,2.22,0,4.01-1.09,5.95-3.62.28-.37.43-.48.6-.48.08,0,.16.03.22.08l.68.45c.13.09.19.2.19.38,0,.16-.05.31-.19.53h.01ZM206.41,93.5v.02c-.11.53-.67.25-1.06.31-1.54,0-3.08.06-4.62.2-.78.07-1.59.17-2.03.22-.75.09-.63.08-.89.07-.36-.04-.36-.35-.37-.64v-3.55c-1.14.99-2.35,1.9-3.39,2.57-1.04.67-1.92,1.11-2.75,1.42s-1.6.5-2.33.6c-.74.09-1.44.1-2.1.01-.62-.07-1.23-.24-1.8-.48-.55-.24-1.06-.55-1.51-.94-.45-.39-.84-.85-1.16-1.37-1.04-1.76-1.12-3.79-.37-5.79.27-.7.65-1.4,1.14-2.06.48-.66,1.06-1.29,1.74-1.87.68-.57,1.45-1.09,2.48-1.63,1.03-.54,2.32-1.1,4.06-1.69,2.02-.66,4.08-1.22,6.16-1.67v-2.16c0-.54-.03-1.09-.1-1.63-.06-.45-.16-.89-.29-1.33-.11-.36-.26-.71-.43-1.05-.29-.56-.7-1.05-1.2-1.44-2.27-1.54-4.76-1.23-7.28.18-1.22.73-2.28,1.71-3.11,2.88-.4.51-.34.73-.81,1.07-.28.13-.79-.24-1.21-.45-.09-.04-.17-.13-.2-.22-.04-.11-.04-.25.07-.52.37-.88,1.33-2.56,3.08-3.98,3.4-2.66,7.03-3.41,10.92-2.61.55.13,1.05.31,1.51.51.46.21.88.45,1.27.72.77.55,1.42,1.26,1.9,2.08.5.84.84,1.94.96,2.99.07.52.08,1.02.08,1.3s0,.34-.01.6c-.02.63-.07,1.83-.11,2.77-.09,2.01-.17,4.02-.23,6.02-.05,1.54-.07,3.08-.07,4.62,0,.45,0,1.07,0,1.74.01.38.02.76.05,1.02.09.59.08.85.59,1.24.47.25.79.24,1.35.27.27.01.6.01.79.01.42,0,.28,0,.41,0,.18.01.5-.07.82.12.07.07.09.17.09.28-.01.41,0,.76-.04,1.24ZM227.12,66.65v-.04s-.17,5.73-.17,5.73c-.01.17-.07.33-.16.47-.02.03-.05.05-.09.05h-1.22c-.14,0-.26-.21-.36-.66-.37-1.55-1.25-2.3-2.66-2.3-1.02,0-2.28.61-3.41,1.66-2.08,1.93-3.32,4.62-3.32,7.25,0,.77.01,1.53.04,2.3.02,1.15.04,2.3.04,3.45.02,1.75.06,3.5.14,5.25l.06,1.67c1.31.31,2.21.41,3.84.41h.35c1.09,0,1.32.06,1.32.35v1.21c0,.3-.13.41-.47.41h-.3l-12.8.07c-.4,0-.61-.19-.61-.47v-1.11c0-.33.17-.41.94-.43h.23c2.5-.11,2.96-1.51,2.96-9.13,0-7.12-.33-13.33-.75-13.82-.18-.21-.7-.31-1.63-.31h-.92s-.06.01-.06.01c-.59,0-.76-.1-.76-.41v-1.2c0-.18.24-.28.72-.3.97-.03,1.6-.06,1.89-.08l1.51-.1c1.75-.12,2.93-.23,3.54-.33.14-.02.28-.04.42-.05.21,0,.31.28.31.86v5.63c3.35-5.13,5.82-6.94,9.48-6.94,1.49,0,1.9.18,1.9.83v.07ZM239.58,93.47c-.13.48-.35.32-.63.36-3.65.01-7.26.07-10.94.04-.25-.04-.38-.35-.38-.6,0-.36-.01-.71.02-1.1.18-.44.58-.28.95-.31.41,0,.82-.02,1.13-.08.53-.1.83-.23,1.18-.59.15-.17.28-.37.37-.58.11-.25.21-.55.31-1,.09-.44.18-1,.24-2.1s.09-2.73.09-4.36v-9.4c0-.92,0-1.85-.04-2.46,0-.39-.04-.79-.09-1.17-.1-.49-.13-.79-.48-1.16-.42-.33-.69-.29-1.17-.33-.51-.02-.82,0-1.04,0-.15,0-.39,0-.54-.02-.53-.03-.52-.34-.52-.64.01-.37-.03-.67.03-1.1.16-.21.36-.14.66-.15,1.24,0,2.48-.1,3.47-.18.99-.08,1.73-.17,2.22-.22.76-.06.98-.25,1.53.04.08.12.08.24.08.41,0,.19-.04.38-.1,2.37-.06,2-.15,5.8-.15,9.84s.1,8.29.28,12.54l.29.04c.68.1,1.36.2,1.8.25.78.15.88-.12,1.4.22.09.43.04.88.03,1.44ZM250.97,94.79h.01c-6.99,0-11.94-5.62-11.94-13.58,0-8.93,5.71-15.54,13.43-15.54,6.94,0,11.9,5.62,11.9,13.48,0,9.01-5.69,15.64-13.4,15.64Z"/>
  <path class="st0" d="M251.63,67.78c-2.82,0-5.3,2.01-6.54,5.31-.66,1.75-.94,3.84-.94,6.92,0,7.72,2.97,12.65,7.62,12.66,4.73,0,7.46-4.49,7.46-12.3,0-5.1-.86-8.23-2.87-10.41-1.3-1.41-2.98-2.18-4.73-2.18Z"/>
</svg>