<?xml version="1.0" encoding="UTF-8"?>
<svg id="Layer_1" xmlns="http://www.w3.org/2000/svg" version="1.1" viewBox="0 0 300 150">
  <!-- Generator: Adobe Illustrator 29.5.0, SVG Export Plug-In . SVG Version: 2.1.0 Build 137)  -->
  <defs>
    <style>
      .st0 {
        fill: #ffcb05;
      }

      .st1 {
        fill: #00a651;
      }

      .st2 {
        fill: #00aeef;
      }

      .st3 {
        fill: #0068a6;
        fill-rule: evenodd;
      }

      .st4 {
        fill: #808285;
      }
    </style>
  </defs>
  <path class="st3" d="M40.81,73.58h-17.47l6.96-24.27c1.53-5.34,1.94-8.98,1.94-8.98h.24s.32,3.8,1.7,8.98l6.63,24.27ZM49.96,99.63c-1.31.02-2.48-.84-2.83-2.11v-.08l-3.96-13.75h-22.41l-4.12,13.75c-.37,1.26-1.51,2.15-2.83,2.18H4.42c-1.64-.02-2.97-1.35-3-2.99,0-.32.08-.57.16-.89v-.08L23.91,27.24c.32-1.29,1.54-2.18,2.91-2.18h12.78c1.3,0,2.43.89,2.83,2.02l22.24,68.51c.08.32.16.65.16.97,0,1.62-1.29,2.99-2.91,2.99h-11.97v.08ZM66.54,24.97c0-1.21.73-2.18,1.7-2.67l9.46-4.93c.49-.32,1.3-.57,1.94-.57,1.62,0,3,1.29,3,2.99v62.36c.08,3.72,3.31,6.63,7.03,6.63,1.62,0,2.99,1.29,2.99,2.99v4.85c0,1.62-1.29,3-2.99,3h-3.32c-10.98,0-19.89-8.89-19.9-19.87,0-.01,0-.02,0-.03V24.97h.08ZM140.3,44.95c1.08.49,1.77,1.57,1.78,2.75v51.28c0,16.26-10.11,24.1-24.99,24.67-7.2.32-13.26-1.38-18.28-3.56-1.14-.47-1.88-1.6-1.86-2.83,0-.4.08-.73.16-1.05l1.62-4.13c.4-1.21,1.53-2.1,2.91-2.1.4,0,.81.08,1.13.24,3.24,1.21,7.2,2.1,11.32,2.1,8.74,0,11.89-4.13,11.89-10.68v-3.15c-1.94,1.05-5.18,1.78-9.95,1.78-13.67,0-23.54-10.52-23.54-27.58,0-19.09,9.79-31.06,29.36-31.06,7.52,0,14.07,1.38,18.44,3.31-.08,0,0,0,0,0h0ZM125.91,89.44c-1.38.89-3.56,1.38-5.74,1.38-8.25,0-11.65-6.15-11.65-19.09,0-13.67,3.48-20.54,11.97-20.54,2.26,0,4.12.32,5.42.97v37.29ZM181.23,91.46v-21.76c-9.39-.73-17.15,2.75-17.15,11.73,0,6.63,3.97,10.6,10.84,10.6,4.45,0,6.31-.57,6.31-.57ZM197.41,72.13v22.16c0,1.21-.73,2.26-1.86,2.75h-.08c-5.01,1.94-12.54,3.31-21.44,3.31-17.23,0-26.37-6.23-26.37-18.04,0-14.64,12.05-21.35,33.48-20.3-.48-5.66-3.8-9.14-11.81-9.14-4.12,0-8.09.89-11.32,2.1-.35.17-.74.25-1.13.24-1.38,0-2.51-.89-2.91-2.1l-1.62-4.13c-.16-.32-.16-.65-.16-1.05,0-1.29.81-2.34,1.86-2.83,4.93-2.18,11-3.88,18.28-3.56,14.88.57,24.99,8.41,24.99,24.67v5.9h.08ZM205.42,48.91c0-2.34,1.62-4.21,3.72-4.93,5.5-1.86,12.7-2.83,23.54-2.51h.08c1.62,0,2.99,1.29,2.99,2.99v4.04c0,1.62-1.38,2.99-3,2.99h-.32c-3.96-.32-8.82.48-10.92,1.46v43.76c-.06,1.61-1.38,2.9-2.99,2.91h-10.11c-1.65,0-2.99-1.33-3-2.98v-47.73Z"/>
  <path class="st2" d="M247.72,44.55c0-.97.57-1.94,1.46-2.51.96-.54,2.14-.51,3.07.08l17.31,9.95c.89.57,1.46,1.46,1.46,2.51,0,1.13-.65,2.1-1.62,2.67,0,0-17.23,9.95-17.31,10.03-.91.48-2,.48-2.91,0-.95-.54-1.52-1.57-1.46-2.67v-20.06Z"/>
  <path class="st0" d="M275.46,60.48c0-.97.57-1.94,1.46-2.51.96-.54,2.14-.51,3.07.08l17.31,9.95c.9.51,1.46,1.47,1.46,2.51,0,1.13-.65,2.1-1.62,2.67,0,0-17.23,9.95-17.31,9.95-.91.5-2.03.47-2.91-.08-.95-.54-1.52-1.57-1.46-2.67v-19.9Z"/>
  <path class="st1" d="M247.72,76.49c0-.97.57-1.94,1.46-2.51.96-.54,2.14-.51,3.07.08l17.31,9.95c.91.51,1.46,1.47,1.46,2.51,0,1.13-.65,2.18-1.62,2.67,0,0-17.23,9.95-17.31,9.95-.91.5-2.03.47-2.91-.08-.95-.54-1.52-1.57-1.46-2.67v-19.9Z"/>
  <path class="st4" d="M196.76,113.14v-3.72h-13.83v3.72h4.13v19.74h5.58v-19.74h4.13ZM207.68,121.95l-6.47.97c-.16-3.8,1.21-5.66,3.4-5.66,2.02,0,3.08,1.46,3.08,4.69ZM212.7,123.89c.24-6.23-2.51-9.79-7.84-9.79s-8.33,3.72-8.33,9.46,3.24,9.54,8.98,9.54c3.15,0,5.18-.65,6.63-1.29l-1.21-3.32c-.97.49-2.67.97-4.85.97-2.75,0-4.13-1.29-4.45-4.04l11.08-1.54ZM220.62,106.1h-5.42v26.69h5.34v-26.69h.08ZM234.37,121.95l-6.47.97c-.16-3.8,1.21-5.66,3.4-5.66,2.02,0,3.07,1.46,3.07,4.69ZM239.39,123.89c.24-6.23-2.51-9.79-7.84-9.79s-8.33,3.72-8.33,9.46,3.23,9.54,8.98,9.54c3.15,0,5.18-.65,6.63-1.29l-1.22-3.32c-.97.49-2.67.97-4.85.97-2.75,0-4.13-1.29-4.45-4.04l11.08-1.54ZM253.38,131.82l-1.13-3.24c-.57.49-1.22.73-2.27.73-2.1,0-3.39-2.19-3.39-5.82s1.13-5.82,3.48-5.82c1.05,0,1.7.32,2.18.73l1.13-2.91c-.81-.65-2.26-1.29-4.53-1.29-4.13,0-7.6,3.23-7.6,9.46s3.23,9.55,7.6,9.55c2.26-.08,3.72-.65,4.53-1.38ZM265.03,123.57c0,3.32-.49,5.99-2.83,5.99s-2.83-2.67-2.83-5.99.48-6.14,2.83-6.14,2.83,2.83,2.83,6.14ZM270.37,123.65c0-5.5-2.83-9.46-8.25-9.46s-8.17,4.04-8.17,9.46,2.83,9.55,8.17,9.55,8.25-4.13,8.25-9.55ZM299,132.79v-12.86c0-3.23-2.26-5.82-6.63-5.82-3.07,0-4.93.81-6.14,1.86-1.05-1.05-2.83-1.86-5.91-1.86-3.23,0-5.42.41-7.52,1.38v17.31h5.34v-15.04c.65-.24,1.21-.32,2.18-.32,1.86,0,2.91.97,2.91,2.43v12.94h5.34v-14.48c.65-.65,1.38-.89,2.34-.89,1.86,0,2.67,1.05,2.67,2.51v12.86h5.42Z"/>
</svg>